<svg width="1920" height="1080" viewBox="0 0 1920 1080" fill="none" xmlns="http://www.w3.org/2000/svg">
<g clip-path="url(#clip0_120_2)">
<path d="M503.202 0C480.004 91.8791 430.324 189.244 507.661 275.637C584.999 362.031 743.706 265.352 930.974 269.466C1118.24 273.58 1336.28 368.202 1336.28 368.202C1457.65 425.798 1360.97 466.938 1278.69 491.622C1196.41 516.306 959.855 596.528 889.917 625.326C819.979 654.124 782.953 684.979 789.124 726.119C795.295 767.259 846.72 870.109 935.171 903.021C1023.62 935.933 1110.02 948.275 1206.69 979.13C1303.37 1009.98 1449.42 1032.61 1453.53 1077.87" stroke="#222222" stroke-width="2" stroke-linejoin="round"/>
</g>
<defs>
<clipPath id="clip0_120_2">
<rect width="1920" height="1080" fill="white"/>
</clipPath>
</defs>
</svg>
