<svg width="1920" height="1080" viewBox="0 0 1920 1080" fill="none" xmlns="http://www.w3.org/2000/svg">
<g clip-path="url(#clip0_120_2)">
<path d="M296.202 0C273.004 91.8791 223.324 189.244 300.661 275.637C377.999 362.031 536.706 265.352 723.974 269.466C911.243 273.58 1129.28 368.202 1129.28 368.202C1250.65 425.798 1153.97 466.938 1071.69 491.622C989.409 516.306 752.855 596.528 682.917 625.326C612.979 654.124 575.953 684.979 582.124 726.119C588.295 767.259 639.72 870.109 728.171 903.021C816.621 935.933 903.015 948.275 999.694 979.13C1096.37 1009.98 1242.42 1032.61 1246.53 1077.87" stroke="#222222" stroke-width="2" stroke-linejoin="round"/>
</g>
<defs>
<clipPath id="clip0_120_2">
<rect width="1920" height="1080" fill="white"/>
</clipPath>
</defs>
</svg>
